<?xml version="1.0" standalone="no"?>
<!DOCTYPE svg PUBLIC "-//W3C//DTD SVG 20010904//EN"
 "http://www.w3.org/TR/2001/REC-SVG-20010904/DTD/svg10.dtd">
<svg version="1.0" xmlns="http://www.w3.org/2000/svg"
 width="400.000000pt" height="400.000000pt" viewBox="0 0 400.000000 400.000000"
 preserveAspectRatio="xMidYMid meet">
<metadata>
Created by potrace 1.14, written by Peter Selinger 2001-2017
</metadata>
<g transform="translate(0.000000,400.000000) scale(0.100000,-0.100000)"
fill="#000000" stroke="none">
<path d="M0 2000 l0 -2000 2000 0 2000 0 0 2000 0 2000 -2000 0 -2000 0 0
-2000z m2145 1468 c12 -44 15 -79 11 -117 l-7 -54 20 24 c31 37 25 10 -19 -82
-31 -66 -40 -78 -40 -55 0 23 -4 27 -19 23 -13 -3 -18 0 -15 7 3 7 0 23 -5 37
-9 22 -10 20 -10 -16 -1 -22 -10 -53 -21 -70 l-20 -30 -1 25 c-2 36 1 82 7
105 5 18 3 18 -15 -3 -23 -26 -41 -82 -41 -125 0 -42 -19 -29 -55 35 -26 49
-29 60 -19 85 11 30 96 144 102 138 2 -2 -3 -14 -12 -27 -27 -38 -20 -51 14
-26 40 29 98 115 106 156 4 17 10 32 14 32 4 0 15 -28 25 -62z m-315 -69 c0
-46 -35 -150 -60 -180 -22 -25 -29 -30 -30 -16 0 21 -16 22 -24 1 -3 -9 -13
-14 -21 -10 -9 3 -20 -5 -29 -22 l-15 -27 -1 32 c0 17 -4 35 -10 38 -5 3 -10
1 -10 -6 0 -7 -3 -10 -6 -6 -13 13 18 74 52 101 30 24 34 25 25 7 -18 -34 -6
-25 56 38 58 60 73 70 73 50z m608 -153 c23 -22 42 -45 42 -50 0 -5 -11 1 -24
13 -14 13 -30 21 -37 19 -7 -2 8 -21 34 -42 32 -26 47 -46 47 -62 l0 -24 -41
21 c-88 45 -139 121 -139 208 l0 25 38 -34 c20 -19 56 -53 80 -74z m-103 -61
c8 -16 17 -41 21 -55 6 -23 6 -24 -16 -9 -12 8 -33 34 -46 58 -24 41 -24 42
-4 36 15 -5 20 -2 21 12 0 14 2 14 6 3 3 -8 11 -28 18 -45z m-548 -197 c128
-49 144 -52 228 -53 86 0 95 2 182 43 51 24 107 47 124 52 41 12 164 -5 236
-32 71 -26 173 -121 217 -202 41 -75 53 -128 61 -276 3 -63 11 -132 17 -153
11 -35 41 -70 70 -79 24 -8 0 -193 -42 -318 -28 -85 -82 -191 -135 -265 -55
-78 -177 -197 -264 -257 -53 -37 -76 -61 -107 -114 -49 -84 -109 -153 -122
-139 -5 6 -15 26 -22 45 -23 59 -39 78 -60 73 -11 -3 -20 -9 -20 -14 0 -5 -33
-45 -73 -88 -42 -45 -77 -92 -83 -112 l-10 -34 -45 89 c-49 99 -92 142 -155
156 -45 10 -47 8 -70 -67 -13 -46 -18 -52 -34 -43 -28 15 -99 93 -149 164 -26
36 -73 85 -107 110 -256 191 -414 497 -414 804 l0 98 36 35 c60 58 73 88 89
210 12 91 22 128 50 186 71 145 215 230 392 232 65 1 89 -5 210 -51z m-427
-1830 c0 -32 -11 -49 -25 -38 -16 13 -18 8 -40 -98 -20 -97 -20 -99 15 -106
40 -8 58 -45 40 -83 -7 -16 -14 -41 -15 -57 -6 -61 -82 -126 -147 -126 -77 0
-137 45 -159 121 -10 31 -9 46 5 86 10 26 24 91 32 143 9 52 24 131 34 175
l19 80 -20 18 c-20 16 -20 19 -5 42 l16 24 125 -82 c76 -50 125 -88 125 -99z
m1481 150 c9 -17 9 -24 -4 -33 -14 -10 -13 -20 8 -94 13 -45 29 -119 36 -164
6 -45 20 -103 30 -129 26 -65 24 -106 -8 -156 -32 -49 -74 -72 -133 -72 -67 0
-131 45 -145 102 -6 24 -5 26 17 21 16 -3 13 1 -11 14 -19 10 -37 27 -41 38
-11 30 7 65 39 78 25 9 28 14 21 36 -4 14 -16 65 -25 114 -11 55 -22 87 -30
87 -8 0 -15 -6 -18 -12 -6 -17 -13 -9 -21 24 -5 24 -1 30 36 51 93 54 214 116
225 116 7 1 18 -9 24 -21z m-101 -678 c0 -5 -4 -10 -10 -10 -5 0 -10 5 -10 10
0 6 5 10 10 10 6 0 10 -4 10 -10z"/>
<path d="M1642 2754 c2 -10 57 -37 153 -75 161 -63 175 -67 175 -45 0 9 -37
29 -97 52 -54 20 -125 48 -157 60 -70 28 -79 29 -74 8z"/>
<path d="M2200 2695 c-93 -38 -155 -68 -155 -76 0 -8 5 -14 10 -14 6 0 79 27
163 60 135 53 170 74 145 88 -5 2 -78 -24 -163 -58z"/>
<path d="M1992 2350 c0 -14 2 -19 5 -12 2 6 2 18 0 25 -3 6 -5 1 -5 -13z"/>
<path d="M1992 2265 c0 -16 2 -22 5 -12 2 9 2 23 0 30 -3 6 -5 -1 -5 -18z"/>
<path d="M1814 2255 c-10 -25 4 -45 30 -45 13 0 26 7 30 15 9 25 -5 45 -30 45
-14 0 -27 -7 -30 -15z"/>
<path d="M2124 2256 c-10 -26 4 -48 28 -44 17 2 23 10 23 28 0 18 -6 26 -23
28 -13 2 -25 -3 -28 -12z"/>
<path d="M1873 1639 c21 -11 52 -22 68 -24 17 -2 44 -7 61 -10 33 -8 138 3
138 13 0 4 -46 7 -103 8 -72 0 -113 5 -141 17 -53 23 -69 21 -23 -4z"/>
<path d="M1283 793 c9 -2 23 -2 30 0 6 3 -1 5 -18 5 -16 0 -22 -2 -12 -5z"/>
</g>
</svg>
